<svg width="256" height="256" viewBox="0 0 256 256" xmlns="http://www.w3.org/2000/svg" aria-hidden="true" role="img">
  <g fill="none" stroke="#bf8021" stroke-width="4" stroke-linecap="round" stroke-linejoin="round">
    
    <line x1="164" y1="172" x2="212" y2="236"/>
    <circle cx="144" cy="144" r="36" fill="#213550"/>
    <circle cx="144" cy="144" r="28"/>
    <path d="M130 132c8-6 18-6 26 0" stroke="#ffffff"/>
    <circle cx="158" cy="130" r="4" fill="#ffffff" stroke="none"/>
    <g transform="translate(28,44) rotate(-10 72 72)">
      <ellipse cx="72" cy="72" rx="28" ry="18" fill="#213550"/>
      <ellipse cx="72" cy="72" rx="28" ry="18"/>
      <path d="M44 72l-12-8 0 16 12-8z"/>
      <path d="M100 72l12-8 0 16-12-8z"/>
      <path d="M62 66c6-4 14-4 20 0" stroke="#ffffff"/>
    </g>
    
  </g>
</svg>