<svg width="256" height="256" viewBox="0 0 256 256" xmlns="http://www.w3.org/2000/svg" aria-hidden="true" role="img">
  <g fill="none" stroke="#bf8021" stroke-width="4" stroke-linecap="round" stroke-linejoin="round">
    
    <path d="M80 96h44c0 -12 8 -20 20 -20s20 8 20 20h12v44c12 0 20 8 20 20s-8 20-20 20v12h-44c0 12-8 20-20 20s-20-8-20-20H80v-44c-12 0-20-8-20-20s8-20 20-20z" fill="#213550"/><path d="M80 96h44c0 -12 8 -20 20 -20s20 8 20 20h12v44c12 0 20 8 20 20s-8 20-20 20v12h-44c0 12-8 20-20 20s-20-8-20-20H80v-44c-12 0-20-8-20-20s8-20 20-20z"/>
    
  </g>
</svg>